<svg width="193" height="192" viewBox="0 0 193 192" fill="none" xmlns="http://www.w3.org/2000/svg">
<path d="M40.1308 128.06L42.1317 126.98L40.7101 124.278L41.9793 123.593L43.4009 126.295L45.5162 125.154L43.9131 122.107L45.2165 121.404L47.6666 126.061L39.6742 130.372L37.2242 125.716L38.5276 125.013L40.1308 128.06Z" fill="white"/>
<path d="M42.0608 112.514L39.7162 115.313L43.141 116.096L43.7337 118.062L38.5483 116.704L35.0989 120.834L34.495 118.831L36.8271 116.036L33.4184 115.261L32.8258 113.296L37.9951 114.645L41.4569 110.511L42.0608 112.514Z" fill="white"/>
<path d="M33.9412 100.529C34.4236 100.479 34.8863 100.548 35.3294 100.736C35.7716 100.916 36.1441 101.239 36.4468 101.703C36.7486 102.159 36.9329 102.758 36.9997 103.5L37.1359 105.014L40.5988 104.651L40.7617 106.463L31.7427 107.408L31.4436 104.082C31.3807 103.384 31.4478 102.776 31.6447 102.259C31.8417 101.742 32.1404 101.34 32.5407 101.055C32.9403 100.76 33.4071 100.585 33.9412 100.529ZM35.5466 103.731C35.5016 103.231 35.3562 102.871 35.1105 102.653C34.8562 102.436 34.5223 102.349 34.1088 102.392C33.2302 102.485 32.8351 103.022 32.9236 104.006L33.0528 105.442L35.6758 105.167L35.5466 103.731Z" fill="white"/>
<path d="M39.0015 93.8561L39.2489 90.8782L40.6875 90.9778L40.2896 95.7683L31.2429 95.1422L31.3935 93.3296L39.0015 93.8561Z" fill="white"/>
<path d="M42.4201 83.3941C42.1926 84.2118 41.7911 84.9115 41.2158 85.4932C40.6404 86.0748 39.9581 86.4755 39.1687 86.6954C38.371 86.9131 37.5411 86.907 36.6791 86.6773C35.8254 86.4498 35.1154 86.0455 34.5489 85.4643C33.9741 84.8809 33.5894 84.1958 33.3948 83.4089C33.2002 82.6221 33.2167 81.8198 33.4442 81.0021C33.674 80.176 34.0755 79.4763 34.6485 78.903C35.2239 78.3214 35.9093 77.9259 36.7047 77.7166C37.494 77.4968 38.3155 77.5006 39.1692 77.7281C40.0312 77.9578 40.7496 78.3643 41.3244 78.9478C41.8932 79.5206 42.2749 80.2004 42.4695 80.9873C42.6641 81.7741 42.6477 82.5764 42.4201 83.3941ZM40.8509 82.9759C40.9972 82.4502 41.0089 81.9559 40.886 81.4929C40.7547 81.0277 40.4986 80.6234 40.1178 80.2799C39.7369 79.9364 39.2535 79.6865 38.6677 79.5304C38.0818 79.3743 37.54 79.3509 37.0421 79.4602C36.5358 79.5673 36.1098 79.7899 35.764 80.128C35.4183 80.466 35.1722 80.8979 35.026 81.4236C34.8797 81.9493 34.8668 82.4478 34.9874 82.9191C35.1103 83.3821 35.3622 83.7853 35.7431 84.1288C36.1156 84.4701 36.5948 84.7188 37.1806 84.8749C37.7664 85.0311 38.3125 85.0556 38.8187 84.9485C39.325 84.8414 39.7552 84.6199 40.1093 84.2841C40.4574 83.9377 40.7046 83.5016 40.8509 82.9759Z" fill="white"/>
<path d="M47.2711 71.2834L43.203 71.4452L42.8071 72.2058L45.9513 73.8187L45.1115 75.432L37.0428 71.2931L38.6145 68.2738C38.9384 67.6515 39.3261 67.1787 39.7775 66.8555C40.2213 66.5282 40.6879 66.3539 41.1775 66.3325C41.6634 66.2994 42.1376 66.4015 42.5999 66.6387C43.1317 66.9115 43.5334 67.3122 43.805 67.8409C44.0689 68.3656 44.1238 68.9729 43.9697 69.6629L48.2429 69.4165L47.2711 71.2834ZM41.5933 71.5832L42.2952 70.2349C42.5231 69.7969 42.589 69.4171 42.4929 69.0952C42.3891 68.7694 42.1484 68.5097 41.7708 68.3159C41.4009 68.1262 41.0598 68.0875 40.7474 68.1998C40.4274 68.3082 40.1534 68.5814 39.9254 69.0193L39.2236 70.3676L41.5933 71.5832Z" fill="white"/>
<path d="M45.5634 60.0125L47.3623 61.403L49.2315 58.989L50.3725 59.8709L48.5032 62.2849L50.4049 63.7548L52.5127 61.0326L53.6845 61.9384L50.4631 66.0987L43.278 60.5449L46.4994 56.3846L47.6713 57.2904L45.5634 60.0125Z" fill="white"/>
<path d="M64.0613 50.394L61.123 52.4943L61.6311 54.255L60.0774 55.3655L57.5046 46.0421L59.2275 44.8106L67.1061 50.3415L65.5418 51.4597L64.0613 50.394ZM62.8224 49.491L59.5719 47.1515L60.6873 51.0171L62.8224 49.491Z" fill="white"/>
<path d="M77.8 45.2595L76.1271 45.9735L69.9657 41.8376L72.3393 47.5903L70.6665 48.3044L67.2027 39.9095L68.8756 39.1955L75.0419 43.3434L72.6634 37.5787L74.3362 36.8646L77.8 45.2595Z" fill="white"/>
<path d="M83.5701 34.3892C84.5066 34.2138 85.3597 34.2435 86.1296 34.4782C86.908 34.7112 87.5475 35.1333 88.0483 35.7444C88.5562 36.3454 88.8873 37.0939 89.0418 37.9902C89.1962 38.8864 89.1358 39.7083 88.8604 40.4559C88.592 41.1935 88.1319 41.8127 87.4801 42.3137C86.8368 42.813 86.0469 43.1504 85.1104 43.3258L81.9946 43.9094L80.4543 34.9728L83.5701 34.3892ZM84.784 41.8142C85.7204 41.6388 86.3999 41.2472 86.8224 40.6394C87.245 40.0316 87.376 39.2625 87.2157 38.3322C87.0553 37.4018 86.6749 36.7241 86.0744 36.2991C85.4723 35.8656 84.7031 35.7366 83.7667 35.9119L82.5025 36.1487L83.5197 42.051L84.784 41.8142Z" fill="white"/>
<path d="M102.314 34.8757L102.032 37.1318L105.067 37.4695L104.888 38.9005L101.854 38.5628L101.556 40.9478L104.978 41.3286L104.794 42.7983L99.5651 42.2162L100.69 33.2048L105.919 33.7869L105.736 35.2566L102.314 34.8757Z" fill="white"/>
<path d="M116.171 45.8178L114.437 45.2687L112.449 38.1118L110.511 44.0255L108.777 43.4764L111.605 34.8466L113.339 35.3956L115.323 42.5649L117.265 36.6389L118.999 37.1879L116.171 45.8178Z" fill="white"/>
<path d="M129.968 42.7191L129.243 43.9955L127.136 42.8121L123.381 49.42L121.795 48.5293L125.55 41.9214L123.444 40.738L124.169 39.4616L129.968 42.7191Z" fill="white"/>
<path d="M135.03 48.2216L133.58 49.9729L135.931 51.92L135.012 53.0308L132.66 51.0837L131.127 52.9351L133.779 55.1308L132.835 56.2716L128.782 52.9159L134.573 45.9208L138.626 49.2764L137.682 50.4173L135.03 48.2216Z" fill="white"/>
<path d="M138.7 62.6551L140.121 58.8409L139.572 58.1824L136.87 60.46L135.705 59.0631L142.639 53.2184L144.819 55.8325C145.268 56.3713 145.555 56.9113 145.679 57.4523C145.81 57.9878 145.79 58.4854 145.621 58.9452C145.464 59.406 145.187 59.8039 144.79 60.1389C144.333 60.5241 143.808 60.7399 143.215 60.7865C142.629 60.8274 142.047 60.6438 141.47 60.2355L140.048 64.2715L138.7 62.6551ZM140.615 57.3032L141.588 58.4706C141.905 58.8497 142.23 59.0571 142.564 59.0926C142.905 59.1225 143.237 59.0007 143.562 58.7272C143.88 58.4593 144.047 58.1596 144.064 57.8282C144.087 57.4912 143.941 57.1331 143.625 56.754L142.651 55.5866L140.615 57.3032Z" fill="white"/>
<path d="M155.59 74.4313L154.245 75.0198L153.303 72.7946L146.34 75.8414L145.631 74.1664L152.594 71.1197L151.651 68.8944L152.996 68.3059L155.59 74.4313Z" fill="white"/>
<path d="M158.861 87.3968L149.994 89.2968L149.639 87.513L153.412 86.7045L152.652 82.8949L148.879 83.7034L148.524 81.9196L157.391 80.0196L157.747 81.8034L154.101 82.5846L154.86 86.3942L158.506 85.613L158.861 87.3968Z" fill="white"/>
<path d="M157.925 95.5597L155.652 95.5983L155.66 98.6514L154.218 98.6759L154.21 95.6228L151.807 95.6637L151.816 99.1065L150.335 99.1317L150.322 93.87L159.402 93.7156L159.415 98.9773L157.934 99.0025L157.925 95.5597Z" fill="white"/>
<path d="M154.81 120.835L146.151 118.141L146.709 116.41L152.341 118.162L147.455 114.097L147.877 112.787L154.258 112.215L148.626 110.462L149.184 108.731L157.843 111.425L157.209 113.392L149.886 114.133L155.44 118.882L154.81 120.835Z" fill="white"/>
<path d="M149.736 127.627L147.762 126.498L146.234 129.14L144.982 128.424L146.51 125.782L144.424 124.588L142.7 127.568L141.415 126.833L144.049 122.278L151.932 126.788L149.297 131.342L148.012 130.607L149.736 127.627Z" fill="white"/>
<path d="M142.057 140.772L140.934 139.827L142.489 137.978L136.674 133.084L137.844 131.692L143.66 136.586L145.215 134.736L146.338 135.681L142.057 140.772Z" fill="white"/>
<path d="M128.946 142.715L131.773 140.467L131.173 138.736L132.668 137.547L135.725 146.719L134.068 148.037L125.906 142.925L127.411 141.728L128.946 142.715ZM130.231 143.552L133.601 145.718L132.285 141.918L130.231 143.552Z" fill="white"/>
<path d="M119.068 156.909L118.121 147.262L120.101 146.283L127.011 152.982L125.264 153.846L119.904 148.453L120.803 156.051L119.068 156.909Z" fill="white"/>
<path d="M111.954 157.723L111.376 155.524L108.434 156.34L108.068 154.945L111.01 154.129L110.4 151.804L107.082 152.724L106.706 151.292L111.776 149.885L114.083 158.669L109.012 160.076L108.636 158.643L111.954 157.723Z" fill="white"/>
<path d="M98.0595 152.536L100.317 155.881L101.171 155.804L100.906 152.281L102.718 152.118L103.396 161.161L100.006 161.465C99.3073 161.528 98.7027 161.456 98.1922 161.25C97.6823 161.052 97.2907 160.753 97.0174 160.351C96.7362 159.959 96.5761 159.504 96.5372 158.985C96.4925 158.39 96.6245 157.834 96.9333 157.32C97.2427 156.814 97.7314 156.439 98.3993 156.197L95.9632 152.724L98.0595 152.536ZM101.273 157.165L99.7587 157.301C99.267 157.345 98.9091 157.494 98.6851 157.749C98.4617 158.013 98.3659 158.356 98.3976 158.779C98.4287 159.194 98.5735 159.503 98.8319 159.706C99.0909 159.917 99.4663 160.001 99.958 159.957L101.472 159.821L101.273 157.165Z" fill="white"/>
<path d="M88.9235 152.297C89.5523 152.363 90.108 152.531 90.5905 152.8C91.0645 153.067 91.4238 153.419 91.6685 153.854C91.9132 154.289 92.007 154.782 91.95 155.334L90.012 155.129C90.0302 154.756 89.9359 154.45 89.729 154.211C89.5134 153.97 89.1989 153.828 88.7855 153.785C88.3634 153.74 88.02 153.804 87.7553 153.976C87.4895 154.157 87.3371 154.411 87.2982 154.738C87.2664 155.004 87.3221 155.232 87.4653 155.422C87.6084 155.611 87.7992 155.766 88.0378 155.887C88.2666 156.016 88.5892 156.163 89.0055 156.329C89.5708 156.563 90.0288 156.781 90.3797 156.984C90.721 157.194 91.0051 157.481 91.2322 157.844C91.4496 158.216 91.5244 158.685 91.4568 159.253C91.3932 159.786 91.2044 160.236 90.8902 160.604C90.5761 160.971 90.1655 161.233 89.6586 161.388C89.1506 161.552 88.5865 161.601 87.9664 161.536C87.0361 161.438 86.3096 161.13 85.7869 160.613C85.2544 160.104 85.0063 159.442 85.0423 158.627L87.032 158.838C87.0123 159.149 87.1156 159.417 87.3418 159.641C87.5584 159.873 87.8691 160.01 88.2739 160.053C88.6271 160.09 88.9221 160.03 89.1589 159.872C89.3872 159.713 89.5218 159.462 89.5628 159.118C89.5915 158.877 89.5381 158.667 89.4025 158.487C89.2573 158.315 89.0745 158.165 88.8543 158.037C88.6244 157.917 88.3018 157.77 87.8865 157.595C87.3213 157.362 86.8638 157.139 86.5139 156.928C86.164 156.717 85.8761 156.425 85.65 156.053C85.424 155.681 85.3443 155.215 85.4109 154.656C85.4683 154.174 85.6465 153.74 85.9455 153.354C86.2445 152.968 86.65 152.675 87.1621 152.477C87.6732 152.287 88.2603 152.227 88.9235 152.297Z" fill="white"/>
<path d="M77.4764 157.937L78.1453 155.764L75.2181 154.896L75.6423 153.518L78.5695 154.386L79.2766 152.088L75.9757 151.11L76.4114 149.694L81.4561 151.19L78.7845 159.869L73.7398 158.374L74.1756 156.958L77.4764 157.937Z" fill="white"/>
</svg>
